<svg width="100" height="100" viewBox="0 0 100 100" fill="none" xmlns="http://www.w3.org/2000/svg">
<g clip-path="url(#clip0_569_301)">
<path d="M37.5 48.9583C36.1187 48.9583 34.7939 49.5071 33.8172 50.4838C32.8404 51.4606 32.2917 52.7853 32.2917 54.1667C32.2917 55.548 32.8404 56.8728 33.8172 57.8495C34.7939 58.8263 36.1187 59.375 37.5 59.375C38.184 59.375 38.8612 59.2403 39.4931 58.9785C40.125 58.7168 40.6992 58.3331 41.1828 57.8495C41.6665 57.3659 42.0501 56.7917 42.3119 56.1598C42.5736 55.5279 42.7083 54.8506 42.7083 54.1667C42.7083 53.4827 42.5736 52.8054 42.3119 52.1735C42.0501 51.5416 41.6665 50.9675 41.1828 50.4838C40.6992 50.0002 40.125 49.6165 39.4931 49.3548C38.8612 49.0931 38.184 48.9583 37.5 48.9583ZM62.5 48.9583C61.1187 48.9583 59.7939 49.5071 58.8172 50.4838C57.8404 51.4606 57.2917 52.7853 57.2917 54.1667C57.2917 55.548 57.8404 56.8728 58.8172 57.8495C59.7939 58.8263 61.1187 59.375 62.5 59.375C63.8813 59.375 65.2061 58.8263 66.1828 57.8495C67.1596 56.8728 67.7083 55.548 67.7083 54.1667C67.7083 52.7853 67.1596 51.4606 66.1828 50.4838C65.2061 49.5071 63.8813 48.9583 62.5 48.9583ZM50 8.33333C44.5283 8.33333 39.1101 9.41107 34.0549 11.505C28.9996 13.599 24.4063 16.6681 20.5372 20.5372C12.7232 28.3512 8.33333 38.9493 8.33333 50C8.33333 61.0507 12.7232 71.6488 20.5372 79.4628C24.4063 83.3319 28.9996 86.401 34.0549 88.495C39.1101 90.5889 44.5283 91.6667 50 91.6667C61.0507 91.6667 71.6488 87.2768 79.4628 79.4628C87.2768 71.6488 91.6667 61.0507 91.6667 50C91.6667 44.5283 90.5889 39.1101 88.495 34.0549C86.401 28.9996 83.3319 24.4063 79.4628 20.5372C75.5937 16.6681 71.0004 13.599 65.9451 11.505C60.8899 9.41107 55.4717 8.33333 50 8.33333ZM50 83.3333C41.1594 83.3333 32.681 79.8214 26.4298 73.5702C20.1786 67.319 16.6667 58.8405 16.6667 50C16.5379 48.809 16.5379 47.6076 16.6667 46.4167C26.5914 42.0741 34.4471 34.0542 38.5833 24.0417C42.4258 29.4867 47.5195 33.9295 53.436 36.9965C59.3526 40.0635 65.9191 41.6652 72.5833 41.6667C75.75 41.6667 78.875 41.2917 81.9583 40.5833C87.1667 58.3333 77.0833 76.7917 59.4167 81.9583C56.25 82.875 53.1667 83.3333 50 83.3333ZM0 8.33333C0 6.1232 0.877974 4.00358 2.44078 2.44078C4.00358 0.877974 6.1232 0 8.33333 0L25 0V8.33333H8.33333V25H0V8.33333ZM100 91.6667C100 93.8768 99.122 95.9964 97.5592 97.5592C95.9964 99.122 93.8768 100 91.6667 100H75V91.6667H91.6667V75H100V91.6667ZM8.33333 100C6.1232 100 4.00358 99.122 2.44078 97.5592C0.877974 95.9964 0 93.8768 0 91.6667V75H8.33333V91.6667H25V100H8.33333ZM91.6667 0C93.8768 0 95.9964 0.877974 97.5592 2.44078C99.122 4.00358 100 6.1232 100 8.33333V25H91.6667V8.33333H75V0H91.6667Z" fill="#0B445F"/>
</g>
<defs>
<clipPath id="clip0_569_301">
<rect width="100" height="100" fill="white"/>
</clipPath>
</defs>
</svg>
